<?xml version="1.0" encoding="utf-8" ?>
<svg xmlns="http://www.w3.org/2000/svg" xmlns:xlink="http://www.w3.org/1999/xlink" width="463" height="463">
	<path fill="gold" d="M62.2781 338.821C63.2789 339.604 64.8873 340.471 66.1154 340.782C68.4255 341.366 70.962 340.862 73.3278 341.335C77.4487 342.159 81.4289 343.624 85.5793 344.359C87.5776 344.713 89.365 344.275 91.0159 344.556C93.6816 345.01 96.2371 346.117 98.9384 346.464C100.605 346.678 102.322 346.134 103.963 346.385C105.871 346.677 107.68 347.475 109.631 347.545C111.662 347.617 113.728 346.783 115.718 346.874C116.862 346.927 118.697 347.861 119.757 347.521C120.153 347.394 120.775 346.607 121.166 346.584C121.628 346.557 121.844 347.445 122.72 347.242C124.283 346.881 125.59 345.836 127.243 345.67C127.449 345.827 127.694 346.041 127.927 346.164C129.49 346.983 137.964 344.436 140.142 343.894C140.223 343.951 140.302 344.01 140.384 344.064C140.585 344.197 141.099 344.532 141.344 344.545C142.848 344.62 144.571 342.903 146.067 342.568C147.947 342.148 149.967 342.265 151.889 341.864L152.266 341.784C152.418 341.909 152.725 342.176 152.897 342.255C153.194 342.391 153.432 342.361 153.698 342.219C155.388 341.316 156.571 340.336 158.564 340.346C159.332 340.35 160.202 340.447 160.957 340.321C162.614 340.044 164.307 339.233 165.965 338.811C166.03 339.661 166.206 340.536 166.139 341.39C166.063 342.368 165.495 343.32 165.554 344.3C165.661 346.074 166.241 347.826 166.388 349.604C166.512 351.103 166.575 352.317 165.561 353.487C163.079 354.492 161.383 354.721 158.701 354.613L158.694 354.672C157.899 355.196 157.095 355.699 156.182 355.991C154.659 356.476 147.416 357.83 145.988 357.774C144.944 357.734 144.348 358.512 143.405 358.793C142.16 359.164 140.741 358.617 139.489 358.822C137.967 359.07 136.53 360.044 135.011 360.403C133.05 360.866 130.724 360.808 128.688 361.088C126.638 361.37 124.641 362.025 122.589 362.36C119.984 362.785 117.22 362.561 114.584 362.667C113.237 362.721 111.809 363.008 110.472 362.89C108.678 362.732 106.948 362.005 105.162 361.72C104.7 361.971 104.161 362.308 103.659 362.474C102.127 362.98 93.1078 360.005 90.9236 359.543C89.447 359.231 87.9515 359.901 86.4857 359.648C81.7672 358.836 65.1784 355.249 61.6178 353.344C61.3654 351.416 60.5344 349.43 60.5209 347.511C60.5065 345.47 62.1612 342.75 61.1634 340.87C60.9157 340.404 60.8059 340.199 60.8298 339.644C61.2994 339.08 61.5952 339.054 62.2781 338.821Z"/>
	<path fill="gold" d="M123.042 375.464L123.627 375.911C124.17 376.985 124.289 378.077 124.323 379.262C124.388 381.451 123.514 383.618 123.59 385.769C123.651 387.488 123.983 389.212 124.093 390.936C124.263 393.617 124.218 396.346 124.234 399.033L124.376 418.209C124.402 419.889 124.186 421.636 124.279 423.297C124.335 424.299 125.089 425.086 125.106 426.128C125.144 428.564 124.866 431.002 124.857 433.434C124.847 436.596 125.163 439.783 125.185 442.96C125.229 449.223 124.987 455.567 125.497 461.811C120.765 461.422 103.416 462.529 100.65 461.27C100.32 458.248 100.039 445.569 100.772 443.112C101.772 439.76 100.476 438.37 100.51 435.304C100.523 434.033 101.228 432.778 101.31 431.432C101.472 428.783 100.997 426.208 101.042 423.578C101.084 421.162 102.495 414.902 101.688 413.148C100.437 410.427 102.262 406.876 102.271 404.038C102.277 402.342 101.44 400.7 101.497 398.992C101.576 396.598 102.253 394.249 102.406 391.86C102.737 386.679 102.544 381.327 102.519 376.128C104.494 376.494 106.509 376.471 108.509 376.607C113.007 376.912 119.052 378.036 123.042 375.464Z"/>
	<path fill="gold" d="M98.5562 245.328C99.499 245.581 109.894 256.301 111.934 258.064C117.231 262.64 124.026 265.407 129.18 270.157C129.033 272.45 129.451 274.601 129.453 276.871C129.457 281.55 129.275 286.198 129.395 290.886C129.441 292.692 130.168 295.394 129.691 297.061C129.241 298.638 130.169 305.167 130.265 307.369C129.991 307.773 129.613 308.243 129.587 308.748C129.531 309.824 129.871 311.186 129.992 312.277C130.183 314.001 130.234 315.813 130.148 317.545C130.083 318.848 129.302 320.109 129.383 321.358C129.63 325.131 131.059 327.643 129.46 331.462C129.242 331.714 128.991 332.046 128.697 332.212C126.847 333.258 109.348 333.912 106.514 333.623C103.509 333.317 100.435 332.184 97.5466 331.331C97.1958 321.71 97.6151 312.043 97.4847 302.413C97.4628 300.797 97.1798 298.697 97.4546 297.118C97.6918 295.754 98.3514 294.93 97.9131 293.522C97.6956 292.823 97.4145 292.066 97.3824 291.33C97.2871 289.148 98.3429 286.871 98.3746 284.633C98.4468 279.539 98.2182 274.428 98.2245 269.336C98.2344 261.338 98.6028 253.338 98.5562 245.328Z"/>
	<path fill="gold" d="M231.121 147.453C231.5 147.531 231.559 147.573 231.847 147.805C232.367 149.706 232.153 152.192 232.184 154.184C232.286 160.598 231.905 167.098 232.411 173.489C237.491 173.207 243.235 173.144 248.291 173.687C255.916 174.508 263.329 176.328 270.881 177.516C271.151 182.357 270.995 187.284 270.998 192.134C271.002 197.725 271.167 203.353 270.669 208.927C265.837 207.569 257.885 206.133 252.918 205.729C250.473 205.529 248.015 205.597 245.57 205.426C243.407 205.275 241.263 204.895 239.099 204.73C236.88 204.56 234.65 204.622 232.426 204.556C231.927 210.801 232.206 217.197 232.179 223.467L232.34 228.8C228.775 226.138 192.608 189.565 192.298 188.569C192.597 187.725 193.015 187.038 193.636 186.387C197.943 181.864 202.595 177.62 206.919 173.094L225.036 154.045C226.886 152.086 228.807 148.744 231.121 147.453Z"/>
	<path fill="gold" d="M115.464 1.61551C115.726 1.70865 115.982 1.87223 116.227 2.00312C117.315 3.66794 120.153 14.2241 120.044 16.208C122.844 19.0731 123.733 24.7007 124.645 28.5195C124.901 29.5897 125.093 30.7683 125.512 31.7865C126.31 33.7283 127.671 35.5879 127.963 37.7032C128.412 40.9584 128.176 44.279 128.214 47.5567L128.277 70.5338C128.291 72.5946 129.101 75.111 129.003 76.8112C128.91 78.4137 128.143 79.9821 128.201 81.5977C128.275 83.6591 129.022 85.6693 129.058 87.7675C129.099 90.0936 128.126 92.3337 128.167 94.6456C128.188 95.8132 128.686 96.9953 128.863 98.15C129.169 100.15 128.234 102.388 128.231 104.428C128.228 106.309 128.919 108.167 128.992 110.048C129.087 112.509 128.205 114.978 128.217 117.456C128.231 120.61 128.895 123.81 129.078 126.969C129.31 130.976 129.124 135.02 129.241 139.034C129.263 139.781 129.62 141.683 129.423 142.246C129.293 142.616 128.746 142.998 128.648 143.381C128.338 144.586 130.189 152.375 128.988 153.999C128.535 154.612 128.917 156.241 128.995 157.033C129.19 159.025 129.39 161.416 129.087 163.403C128.952 164.29 128.469 165.08 128.491 165.995C128.546 168.361 129.236 170.65 129.192 173.082C129.162 174.737 128.565 176.496 128.652 178.089C128.731 179.518 129.118 180.923 129.182 182.376C129.5 189.599 129.121 196.922 129.162 204.155C129.182 207.803 129.68 212.008 129.069 215.575C127.763 215.933 121.316 209.958 119.591 209.062C119.521 209.026 119.45 208.992 119.379 208.957L117.231 208.762C116.125 207.466 115.006 205.985 113.735 204.858C110.675 202.143 105.807 200.115 104.075 196.275C103.13 194.182 102.538 191.887 101.766 189.724C101.071 187.773 99.9332 185.591 99.5429 183.575C99.423 182.956 99.6184 182.363 99.8407 181.792C100.887 179.102 99.5069 176.208 99.4281 173.426C99.3679 171.302 100.382 169.308 100.408 167.208C100.424 165.907 99.6759 164.701 99.6879 163.403C99.7065 161.387 100.428 159.379 100.419 157.35C100.41 155.391 100.086 153.436 100.077 151.477C100.07 149.691 100.326 147.913 100.328 146.128C100.339 138.739 100.245 131.296 100.455 123.904C100.492 122.571 101.202 121.321 101.215 120.049C101.228 118.732 100.39 117.378 100.302 116.032C100.133 113.434 101.236 111.003 101.218 108.465C101.206 106.731 100.47 105.025 100.503 103.331C100.528 102.037 101.25 100.816 101.306 99.4238C101.4 97.0903 100.771 94.8257 100.792 92.5086C100.81 90.5453 101.435 88.6025 101.468 86.6218C101.563 80.9331 101.128 75.1863 101.232 69.5009C101.278 67.0058 102.506 61.715 101.87 59.7118C100.789 56.2999 102.261 54.0935 102.281 50.8087C102.292 48.9416 101.651 47.1099 101.497 45.2557C101.012 39.409 109.153 18.796 111.447 12.2163C112.6 8.91114 113.24 4.31438 115.464 1.61551Z"/>
	<path fill="gold" d="M283.907 104.236C289.407 109.992 296.328 115.633 301.343 121.548C301.767 126.814 301.517 132.259 301.516 137.546L301.504 165.469L301.5 253.921L301.503 314.438L301.516 332.111C301.517 335.434 301.767 339.023 301.324 342.311C298.858 345.489 295.615 348.24 292.705 351.021Q288.195 355.36 283.786 359.802L283.754 303.374C283.76 294.425 284.036 285.39 283.776 276.451C277.403 282.526 271.998 289.409 266.027 295.831C262.048 300.11 257.686 304.069 253.63 308.288C250.962 311.063 248.548 314.227 245.8 316.877C245.326 317.335 244.799 317.864 244.109 317.902C243.142 316.393 243.345 294.785 243.581 291.579C239.041 291.726 234.145 291.843 229.627 291.409C194.384 288.018 140.391 268.363 114.46 244.052C107.907 237.908 98.0762 226.95 96.8838 217.857C95.5519 213.514 96.5082 202.627 97.6991 198.22C97.8682 197.545 97.9523 196.937 98.4751 196.436C99.257 197.213 99.2045 202.387 100.002 204.549C101.818 209.469 105.324 213.918 109.087 217.495C131.589 238.888 184.576 253.561 214.852 258.043Q229.098 260.229 243.51 260.426C243.519 257.686 243.883 238.864 243.499 238.013L244.041 237.819L243.962 237.307L243.658 237.57L243.847 236.843C244.525 236.768 244.848 236.826 245.417 237.235C246.382 237.93 247.065 238.934 247.943 239.717C250.284 241.804 252.481 243.967 254.71 246.174C259.319 250.735 264.081 255.145 268.553 259.841C273.593 265.133 278.379 270.742 283.868 275.59Q283.661 255.53 283.738 235.469L283.742 171.604L283.745 128.75C283.746 120.615 283.478 112.355 283.907 104.236ZM96.8838 217.857C97.1536 217.76 97.3277 217.64 97.5624 217.479C98.092 212.304 97.29 206.908 97.5984 201.7C98.0669 201.626 97.8448 201.693 98.2662 201.504C98.3916 200.573 97.8566 199.195 97.6991 198.22C96.5082 202.627 95.5519 213.514 96.8838 217.857Z"/>
	<path fill="gold" d="M96.8838 217.857C95.5519 213.514 96.5082 202.627 97.6991 198.22C97.8566 199.195 98.3916 200.573 98.2662 201.504C97.8448 201.693 98.0669 201.626 97.5984 201.7C97.29 206.908 98.092 212.304 97.5624 217.479C97.3277 217.64 97.1536 217.76 96.8838 217.857Z"/>
	<path fill="gold" d="M311.234 1.29902C311.689 1.28749 312.16 1.27909 312.609 1.36829C318.441 2.52879 326.321 12.6571 329.373 17.5665C330.848 19.9407 333.207 23.6039 332.542 26.5095C331.414 27.2819 326.816 27.09 325.065 27.4282C322.76 27.8734 320.475 28.6003 318.385 29.6773C311.815 33.0618 304.394 39.5996 302.15 46.8764C301.714 48.2902 301.461 49.823 301.743 51.292C302.021 52.7396 302.749 53.8468 303.743 54.9054C305.378 56.6485 307.48 58.1113 309.293 59.6781C312.224 62.2116 315.086 64.8389 317.954 67.4449Q332.102 80.3517 345.439 94.0944C363.529 112.818 382.337 134.191 394.353 157.354C397.066 162.583 400.055 169.342 401.21 175.116C401.648 177.306 401.633 179.652 401.663 181.881C401.706 185.199 401.692 188.711 401.151 191.986C399.916 199.465 395.96 209.502 393.025 216.604C390.968 221.58 388.445 226.663 386.856 231.797L386.76 232.115C387.786 235.699 389.682 239.362 391.123 242.816C394.185 250.159 396.983 257.367 399.258 264.991C399.984 267.422 400.866 269.895 401.263 272.405C401.743 275.445 401.688 278.782 401.652 281.861C401.622 284.461 401.553 287.149 400.998 289.694C394.57 319.152 352.022 364.26 329.805 385.446Q321.849 393.078 313.62 400.414C310.515 403.179 307.101 405.801 304.197 408.766C303.149 409.836 301.935 411.24 301.678 412.745C301.093 416.168 303.063 419.901 304.959 422.624C309.093 428.565 316.438 434.662 323.615 436.362C326.543 437.056 329.518 436.886 332.453 437.403C332.877 438.341 332.698 439.032 332.414 440.016C330.416 446.96 321.998 457.586 315.751 461.015C313.764 462.105 311.764 462.241 309.612 461.584C307.276 460.87 305.015 459.428 302.999 458.085C293.674 451.874 286.549 442.738 281.501 432.835C279.056 427.882 274.917 418.575 274.549 413.136C274.316 409.677 273.926 400.384 274.955 397.395C276.074 394.145 277.745 390.809 279.774 388.042C285.073 380.817 292.112 374.321 298.561 368.115C310.36 356.762 322.606 345.871 333.344 333.472C348.08 316.456 358.291 296.903 365.014 275.486C367.656 267.068 369.973 258.515 369.326 249.6C358.818 237.536 338.846 228.815 324.203 223.272C320.307 221.797 316.139 220.044 312.043 219.247C311.871 215.605 311.999 211.906 312 208.259Q311.943 199.786 312.1 191.315C316.901 193.814 322.113 195.7 326.997 198.09C342.598 205.724 359.295 216.008 370.162 229.846C370.532 221.232 370.317 212.038 368.919 203.512C367.864 197.078 365.755 190.604 363.683 184.439C354.731 157.806 340.928 137.053 321.064 117.304C307.652 103.97 292.491 91.7355 280.612 76.9708C275.145 70.1751 274.435 66.3114 274.424 57.9613C274.421 55.2275 274.331 52.4586 274.602 49.7362C274.764 48.1105 277.41 40.7847 278.172 38.7272C284.165 22.5442 295.381 8.59648 311.234 1.29902Z"/>
</svg>
